<svg width="100" height="100" viewBox="0 0 100 100" fill="none" xmlns="http://www.w3.org/2000/svg">
  <defs>
    <linearGradient id="bodyGradient" x1="0%" y1="0%" x2="100%" y2="100%">
      <stop offset="0%" style="stop-color:#fbbf24;stop-opacity:1" />
      <stop offset="100%" style="stop-color:#f59e0b;stop-opacity:1" />
    </linearGradient>
    <linearGradient id="faceGradient" x1="0%" y1="0%" x2="100%" y2="100%">
      <stop offset="0%" style="stop-color:#fef3c7;stop-opacity:1" />
      <stop offset="100%" style="stop-color:#fde68a;stop-opacity:1" />
    </linearGradient>
  </defs>

  <!-- Body -->
  <ellipse cx="50" cy="70" rx="30" ry="25" fill="url(#bodyGradient)"/>
  <ellipse cx="50" cy="45" rx="25" ry="20" fill="url(#faceGradient)"/>

  <!-- Ears -->
  <ellipse cx="35" cy="30" rx="8" ry="12" fill="url(#bodyGradient)"/>
  <ellipse cx="65" cy="30" rx="8" ry="12" fill="url(#bodyGradient)"/>
  <ellipse cx="35" cy="32" rx="4" ry="6" fill="#d97706"/>
  <ellipse cx="65" cy="32" rx="4" ry="6" fill="#d97706"/>

  <!-- Eyes -->
  <circle cx="42" cy="42" r="4" fill="#1f2937"/>
  <circle cx="58" cy="42" r="4" fill="#1f2937"/>
  <circle cx="43" cy="40" r="1.5" fill="white"/>
  <circle cx="59" cy="40" r="1.5" fill="white"/>

  <!-- Nose -->
  <ellipse cx="50" cy="48" rx="2" ry="1.5" fill="#dc2626"/>

  <!-- Mouth -->
  <path d="M45 52 Q50 58 55 52" stroke="#1f2937" stroke-width="1.5" fill="none" stroke-linecap="round"/>

  <!-- Cheeks -->
  <circle cx="35" cy="50" r="3" fill="#fca5a5" opacity="0.6"/>
  <circle cx="65" cy="50" r="3" fill="#fca5a5" opacity="0.6"/>

  <!-- Arms -->
  <ellipse cx="25" cy="65" rx="8" ry="15" fill="url(#bodyGradient)" transform="rotate(-20 25 65)"/>
  <ellipse cx="75" cy="65" rx="8" ry="15" fill="url(#bodyGradient)" transform="rotate(20 75 65)"/>

  <!-- Legs -->
  <ellipse cx="40" cy="85" rx="6" ry="12" fill="url(#bodyGradient)"/>
  <ellipse cx="60" cy="85" rx="6" ry="12" fill="url(#bodyGradient)"/>
</svg>
